<?xml version="1.0" encoding="UTF-8"?>
<svg version="1.1" xmlns="http://www.w3.org/2000/svg" width="200" height="200">
<path d="M0 0 C1.4540625 0.0309375 1.4540625 0.0309375 2.9375 0.0625 C4.8905616 3.9686232 4.87945259 8.67830707 5.4375 12.97265625 C5.60627322 15.92629709 5.60627322 15.92629709 6.9375 17.0625 C7.0625 19.5625 7.0625 19.5625 6.9375 22.0625 C6.4425 22.5575 6.4425 22.5575 5.9375 23.0625 C6.08851369 28.65863999 6.08851369 28.65863999 8.9375 33.0625 C8.7560339 35.66741661 8.47473614 38.11931623 8.0625 40.6875 C7.95808594 41.39390625 7.85367188 42.1003125 7.74609375 42.828125 C7.48650874 44.57442414 7.21328567 46.31868599 6.9375 48.0625 C7.5975 48.0625 8.2575 48.0625 8.9375 48.0625 C9.31968767 49.71864657 9.65145102 51.38707024 9.9375 53.0625 C9.6075 53.3925 9.2775 53.7225 8.9375 54.0625 C8.68744614 57.02067107 8.68744614 57.02067107 8.9375 60.0625 C9.5975 60.7225 10.2575 61.3825 10.9375 62.0625 C11.08257695 64.80735593 11.12402423 67.44730543 11.0625 70.1875 C11.05347656 70.94160156 11.04445312 71.69570312 11.03515625 72.47265625 C11.0115687 74.33607254 10.97569719 76.19932593 10.9375 78.0625 C11.75541016 78.248125 11.75541016 78.248125 12.58984375 78.4375 C21.77671143 80.95014757 28.05946299 86.87517773 32.96484375 94.91015625 C37.05222013 103.95491281 37.76111733 115.11188069 34.375 124.5 C30.91902134 131.85158711 25.21368233 137.09993723 18.9375 142.0625 C16.6578772 143.8813077 16.6578772 143.8813077 16.8828125 146.5234375 C17.00230444 148.461285 17.1272778 150.39880252 17.2578125 152.3359375 C16.9375 155.0625 16.9375 155.0625 14.9765625 156.8359375 C11.83584255 160.26545928 12.26482024 163.81386798 12.1875 168.3125 C12.15785156 169.15296875 12.12820312 169.9934375 12.09765625 170.859375 C12.02718364 172.9265715 11.98005061 174.99454033 11.9375 177.0625 C8.65053767 177.86203138 7.22726808 178.15908936 3.9375 177.0625 C4.5975 172.1125 5.2575 167.1625 5.9375 162.0625 C3.6275 162.0625 1.3175 162.0625 -1.0625 162.0625 C-0.94873383 164.18813103 -0.82114369 166.3130261 -0.6875 168.4375 C-0.61789063 169.62085938 -0.54828125 170.80421875 -0.4765625 172.0234375 C-0.36032654 175.16812319 -0.36032654 175.16812319 1.9375 177.0625 C-2.3525 177.3925 -6.6425 177.7225 -11.0625 178.0625 C-12.94430639 174.29888723 -12.3950022 169.45392318 -12.4921875 165.27148438 C-12.50596508 161.00233661 -12.50596508 161.00233661 -14.52978516 157.44116211 C-15.288479 156.75872437 -15.288479 156.75872437 -16.0625 156.0625 C-17.3801034 153.4272932 -16.88447595 151.73459842 -16.625 148.8125 C-16.51781838 144.64860598 -16.51781838 144.64860598 -18.62890625 141.25 C-20.02558443 140.27471049 -21.45072308 139.33919381 -22.8984375 138.44140625 C-29.10665311 134.48562988 -32.98155543 128.00616996 -35.0625 121.0625 C-36.97564285 110.7287357 -36.08119693 101.30315621 -30.60546875 92.23046875 C-25.87205204 85.57971868 -20.5883633 81.17665033 -13.0625 78.0625 C-12.4025 78.0625 -11.7425 78.0625 -11.0625 78.0625 C-11.08570312 76.93070312 -11.10890625 75.79890625 -11.1328125 74.6328125 C-11.15156901 73.15104825 -11.16976934 71.66927688 -11.1875 70.1875 C-11.20425781 69.44113281 -11.22101563 68.69476563 -11.23828125 67.92578125 C-11.2558959 65.97055539 -11.16570189 64.01507979 -11.0625 62.0625 C-10.4025 61.4025 -9.7425 60.7425 -9.0625 60.0625 C-8.87235151 57.14688981 -8.91516301 54.65184796 -9.625 51.8125 C-10.0625 50.0625 -10.0625 50.0625 -9.0625 48.0625 C-8.4025 48.0625 -7.7425 48.0625 -7.0625 48.0625 C-7.20433696 46.31217156 -7.35113429 44.56224466 -7.5 42.8125 C-7.58121094 41.83796875 -7.66242188 40.8634375 -7.74609375 39.859375 C-7.97322733 37.1265452 -7.97322733 37.1265452 -8.72265625 34.828125 C-8.83480469 34.24546875 -8.94695312 33.6628125 -9.0625 33.0625 C-8.4025 32.4025 -7.7425 31.7425 -7.0625 31.0625 C-6.89500582 27.94041924 -6.89500582 27.94041924 -7.0625 24.375 C-7.14256021 19.13372499 -6.72803902 15.05911707 -5.0625 10.0625 C-4.74054241 7.67137597 -4.50826429 5.28700885 -4.30859375 2.8828125 C-3.88230411 -0.27037751 -3.27909318 0.06692027 0 0 Z " fill="#191819" transform="translate(100.0625,8.9375)"/>
<path d="M0 0 C7.53786255 2.51262085 10.06021158 5.57304046 13.875 12.3125 C15 15 15 15 15 17 C15.66 17 16.32 17 17 17 C15.05175031 11.15525092 12.76142045 6.87968058 9 2 C17.37598833 4.61749635 22.7463049 10.07311849 26.9453125 17.5859375 C28.22786528 20.52155831 28.49984595 22.83430895 28 26 C22.75247315 26.30145367 18.14324701 26.24068001 13.125 24.5625 C2.78719333 21.18097445 -7.44798618 21.67474953 -18 24 C-18.68578125 24.35191406 -19.3715625 24.70382813 -20.078125 25.06640625 C-22.57327361 26.27848048 -24.49348629 26.19753983 -27.25 26.125 C-28.14203125 26.10695313 -29.0340625 26.08890625 -29.953125 26.0703125 C-30.62859375 26.04710938 -31.3040625 26.02390625 -32 26 C-31.68453597 18.58659537 -28.29682671 13.40340516 -23.1875 8.12890625 C-19.98932988 5.25468871 -18.3055168 4.0763792 -14 3 C-16.31 7.62 -18.62 12.24 -21 17 C-20.34 17 -19.68 17 -19 17 C-18.6596875 15.7315625 -18.6596875 15.7315625 -18.3125 14.4375 C-16.28252436 9.12089714 -13.13004651 3.81325131 -8 1 C-6.68 1 -5.36 1 -4 1 C-4 6.28 -4 11.56 -4 17 C-2.68 17 -1.36 17 0 17 C0 11.39 0 5.78 0 0 Z " fill="#8FD8F4" transform="translate(102,90)"/>
<path d="M0 0 C7.53786255 2.51262085 10.06021158 5.57304046 13.875 12.3125 C15 15 15 15 15 17 C15.66 17 16.32 17 17 17 C15.05175031 11.15525092 12.76142045 6.87968058 9 2 C17.37598833 4.61749635 22.7463049 10.07311849 26.9453125 17.5859375 C28.22786528 20.52155831 28.49984595 22.83430895 28 26 C21.72318351 26.36058307 16.55206287 25.879372 10.6171875 23.75390625 C7.17031882 22.76100229 3.55932743 22.44491593 0 22 C0 14.74 0 7.48 0 0 Z " fill="#C2E7F4" transform="translate(102,90)"/>
<path d="M0 0 C0.87914063 0.00451172 1.75828125 0.00902344 2.6640625 0.01367188 C4.81773803 0.02537663 6.97137817 0.04330931 9.125 0.0625 C7.805 0.3925 6.485 0.7225 5.125 1.0625 C5.455 2.3825 5.785 3.7025 6.125 5.0625 C5.63 4.7325 5.135 4.4025 4.625 4.0625 C1.08154571 2.64511828 -2.10975769 2.45296282 -5.875 3.0625 C-8.5219872 4.45935006 -8.5219872 4.45935006 -9.875 7.0625 C-10.62511367 10.51978358 -10.62511367 10.51978358 -9.875 14.0625 C-7.42901113 17.44371991 -5.98203441 18.83186783 -1.875 19.6875 C2.22585314 18.8331556 3.63740343 17.40298682 6.125 14.0625 C7.01027109 10.37808496 7.01027109 10.37808496 7.125 7.0625 C7.455 7.0625 7.785 7.0625 8.125 7.0625 C9.33068053 11.73451205 9.21882426 16.27746292 9.125 21.0625 C2.44142029 24.12937113 -5.30951381 24.18750887 -12.3125 21.9375 C-16.30791842 20.13956171 -18.57151555 17.83183818 -20.875 14.0625 C-21.53276307 11.05838805 -21.79993173 8.13347449 -21.875 5.0625 C-14.76279754 -0.18698277 -8.50540899 -0.08326078 0 0 Z " fill="#0A1823" transform="translate(101.875,114.9375)"/>
<path d="M0 0 C3.5060303 0.86943897 4.94966563 2.56083702 6.9375 5.48046875 C7.62901325 9.78321784 7.45307405 11.68992187 5.0625 15.35546875 C2.55083682 17.86713193 1.64365837 18.40200671 -1.875 18.79296875 C-5.7932645 18.40882517 -7.27543267 17.18790558 -10.0625 14.48046875 C-11.63185594 11.34175687 -11.41451103 8.94191053 -11.0625 5.48046875 C-8.01136975 0.99912119 -5.26455839 -0.36891792 0 0 Z " fill="#B2E0EE" transform="translate(102.0625,116.51953125)"/>
<path d="M0 0 C13.53 0 27.06 0 41 0 C34.72519603 6.27480397 28.79105125 8.23200061 19.9375 8.5 C11.22373736 8.23450995 6.13420585 6.13420585 0 0 Z " fill="#D0D0D8" transform="translate(80,142)"/>
<path d="M0 0 C2.475 0.99 2.475 0.99 5 2 C5 8.27 5 14.54 5 21 C5.99 20.67 6.98 20.34 8 20 C8.495 11.09 8.495 11.09 9 2 C13.29 2 17.58 2 22 2 C22 8.27 22 14.54 22 21 C21.01 21 20.02 21 19 21 C19.66 16.05 20.32 11.1 21 6 C18.69 6 16.38 6 14 6 C14.11376617 8.12563103 14.24135631 10.2505261 14.375 12.375 C14.44460937 13.55835938 14.51421875 14.74171875 14.5859375 15.9609375 C14.70217346 19.10562319 14.70217346 19.10562319 17 21 C10.565 21.495 10.565 21.495 4 22 C2.3501993 18.70039859 2.61741639 15.00872116 2.4375 11.375 C2.37272461 10.17230469 2.37272461 10.17230469 2.30664062 8.9453125 C2.20048543 6.9637489 2.09973145 4.98189729 2 3 C1.34 2.67 0.68 2.34 0 2 C0 1.34 0 0.68 0 0 Z " fill="#B0B0B5" transform="translate(85,165)"/>
<path d="M0 0 C8.37598833 2.61749635 13.7463049 8.07311849 17.9453125 15.5859375 C19.22786528 18.52155831 19.49984595 20.83430895 19 24 C17.37509046 24.02698189 15.75005367 24.04638757 14.125 24.0625 C13.22007813 24.07410156 12.31515625 24.08570312 11.3828125 24.09765625 C9 24 9 24 7 23 C6.40644386 20.35139573 6.25790731 17.70802678 6 15 C6.66 15 7.32 15 8 15 C6.05175031 9.15525092 3.76142045 4.87968058 0 0 Z " fill="#C1E1EC" transform="translate(111,92)"/>
<path d="M0 0 C0.66 0.33 1.32 0.66 2 1 C1.3503125 1.89138672 1.3503125 1.89138672 0.6875 2.80078125 C-3.73029982 9.37634903 -4.80662545 14.14287061 -4 22 C-6.52475462 23.26237731 -8.31200466 23.09856404 -11.125 23.0625 C-12.03507812 23.05347656 -12.94515625 23.04445313 -13.8828125 23.03515625 C-14.93082031 23.01775391 -14.93082031 23.01775391 -16 23 C-15.6853448 15.60560275 -12.32635078 10.30564735 -7.1171875 5.12890625 C-4.83414608 3.13721531 -2.71510844 1.35755422 0 0 Z " fill="#79CBE9" transform="translate(86,93)"/>
<path d="M0 0 C5.02237015 -0.29543354 7.9107578 -0.00679573 12 3 C13 4 13 4 13.3125 7.125 C12.91720772 12.02662429 11.87809436 14.03289697 9 18 C7.35 18.66 5.7 19.32 4 20 C3.67 15.38 3.34 10.76 3 6 C2.34 6 1.68 6 1 6 C0.67 4.02 0.34 2.04 0 0 Z " fill="#3A4A56" transform="translate(107,116)"/>
<path d="M0 0 C7.59 0 15.18 0 23 0 C23 2.31 23 4.62 23 7 C15.41 7 7.82 7 0 7 C0 4.69 0 2.38 0 0 Z " fill="#D9D9E1" transform="translate(88,155)"/>
<path d="M0 0 C3.96 0 7.92 0 12 0 C12 4.29 12 8.58 12 13 C8.04 13 4.08 13 0 13 C0 8.71 0 4.42 0 0 Z " fill="#F1F1F4" transform="translate(94,73)"/>
<path d="M0 0 C2.64 0 5.28 0 8 0 C8.72995076 6.71554696 6.35615787 11.25601834 3 17 C2 18 2 18 -0.06640625 18.09765625 C-0.89011719 18.08605469 -1.71382813 18.07445312 -2.5625 18.0625 C-3.38878906 18.05347656 -4.21507813 18.04445312 -5.06640625 18.03515625 C-6.02353516 18.01775391 -6.02353516 18.01775391 -7 18 C-6.21625 17.071875 -5.4325 16.14375 -4.625 15.1875 C-1.25979046 10.55437865 -0.67575278 5.57748194 0 0 Z " fill="#E0E1E3" transform="translate(123,120)"/>
<path d="M0 0 C2.31 0 4.62 0 7 0 C7.15855469 0.79664062 7.31710938 1.59328125 7.48046875 2.4140625 C8.91614752 8.93410641 10.17996097 13.3102323 15 18 C11.7 18 8.4 18 5 18 C1.41874318 11.75838097 -0.67090715 7.24579719 0 0 Z " fill="#C6C6CE" transform="translate(70,120)"/>
<path d="M0 0 C1.9375 1.0625 1.9375 1.0625 3 3 C2.875 6.5625 2.875 6.5625 2 10 C-1 12 -1 12 -4.0625 11.8125 C-7 11 -7 11 -9 8 C-9.35384949 5.16920408 -9.3920891 3.63169911 -7.875 1.1875 C-5.12844028 -0.55198782 -3.18153026 -0.39769128 0 0 Z " fill="#0F2842" transform="translate(103,120)"/>
<path d="M0 0 C6.62813457 -0.61120093 10.55898734 -0.15412059 15.97265625 3.75390625 C19.37235848 5.84351128 23.0999044 6.39512406 27 7 C27 7.33 27 7.66 27 8 C17.07669165 8.50816373 9.15127955 8.52307473 1.4375 1.75 C0.963125 1.1725 0.48875 0.595 0 0 Z " fill="#B3B3BF" transform="translate(80,142)"/>
<path d="M0 0 C2.97 0 5.94 0 9 0 C9 6.27 9 12.54 9 19 C8.01 19 7.02 19 6 19 C6.66 14.05 7.32 9.1 8 4 C5.69 4 3.38 4 1 4 C1.11376617 6.12563103 1.24135631 8.2505261 1.375 10.375 C1.44460937 11.55835938 1.51421875 12.74171875 1.5859375 13.9609375 C1.70217346 17.10562319 1.70217346 17.10562319 4 19 C2.68 19 1.36 19 0 19 C0 12.73 0 6.46 0 0 Z " fill="#E5E5EA" transform="translate(98,167)"/>
<path d="M0 0 C3.96 0 7.92 0 12 0 C12 0.33 12 0.66 12 1 C9.36 1 6.72 1 4 1 C4 4.63 4 8.26 4 12 C6.64 12 9.28 12 12 12 C12 12.33 12 12.66 12 13 C8.04 13 4.08 13 0 13 C0 8.71 0 4.42 0 0 Z " fill="#C3C3CA" transform="translate(94,73)"/>
<path d="M0 0 C2.35448165 2.55068845 2.98327924 3.71017358 3.1875 7.25 C3.125625 8.1575 3.06375 9.065 3 10 C-3.15234375 10.09765625 -3.15234375 10.09765625 -5 10 C-6 9 -6 9 -6.0625 6.4375 C-6.041875 5.633125 -6.02125 4.82875 -6 4 C-4.7934375 3.566875 -4.7934375 3.566875 -3.5625 3.125 C-0.8673532 2.26737432 -0.8673532 2.26737432 0 0 Z " fill="#BAE3F2" transform="translate(127,106)"/>
<path d="M0 0 C3.60654039 2.40436026 3.85452932 3.94679607 5 8 C7.31 8.33 9.62 8.66 12 9 C12 9.66 12 10.32 12 11 C12.66 11.33 13.32 11.66 14 12 C11.14675563 13.42662219 9.16545451 13.31033868 6 13 C3.30009338 11.20006226 1.4581135 9.916227 0 7 C-0.04022391 4.6670134 -0.04320247 2.33293334 0 0 Z " fill="#59BFE5" transform="translate(91,122)"/>
<path d="M0 0 C1.32 0 2.64 0 4 0 C4 3.96 4 7.92 4 12 C2.68 12 1.36 12 0 12 C0 8.04 0 4.08 0 0 Z " fill="#F7F7F7" transform="translate(98,46)"/>
<path d="M0 0 C1.98 0 3.96 0 6 0 C6 2.31 6 4.62 6 7 C4.02 7 2.04 7 0 7 C0 4.69 0 2.38 0 0 Z " fill="#D15454" transform="translate(97,62)"/>
<path d="M0 0 C1.65 0 3.3 0 5 0 C5 2.31 5 4.62 5 7 C3.35 7 1.7 7 0 7 C0 4.69 0 2.38 0 0 Z " fill="#B6B6C0" transform="translate(88,155)"/>
<path d="M0 0 C0 0.66 0 1.32 0 2 C1.32 2.33 2.64 2.66 4 3 C3.0925 3.226875 2.185 3.45375 1.25 3.6875 C-2.44888324 5.18127977 -3.77905658 6.75400577 -6 10 C-6.25 6.6875 -6.25 6.6875 -6 3 C-3.96080228 0.89282902 -2.95416573 0 0 0 Z " fill="#7CCAE7" transform="translate(98,117)"/>
<path d="M0 0 C0.33 0 0.66 0 1 0 C1 6.27 1 12.54 1 19 C0.01 19 -0.98 19 -2 19 C-1.34 12.73 -0.68 6.46 0 0 Z " fill="#A2A2A3" transform="translate(106,167)"/>
<path d="M0 0 C2.56616632 3.84924948 2.55097676 6.4349304 3 11 C1.68 10.67 0.36 10.34 -1 10 C-1.33 7.36 -1.66 4.72 -2 2 C-1.34 2 -0.68 2 0 2 C0 1.34 0 0.68 0 0 Z " fill="#69B8CB" transform="translate(119,105)"/>
<path d="M0 0 C0.33 0 0.66 0 1 0 C1.36476427 6.32258065 1.36476427 6.32258065 -0.3125 9.4375 C-2 11 -2 11 -5 11 C-4.54917531 9.53932801 -4.08906463 8.08151968 -3.625 6.625 C-3.36976562 5.81289062 -3.11453125 5.00078125 -2.8515625 4.1640625 C-2 2 -2 2 0 0 Z " fill="#99D5EA" transform="translate(108,122)"/>
<path d="M0 0 C0.66 0.33 1.32 0.66 2 1 C0.92492371 2.29854721 -0.16043736 3.58858361 -1.25 4.875 C-1.85328125 5.59429687 -2.4565625 6.31359375 -3.078125 7.0546875 C-4.97087634 8.97052118 -6.53657727 9.96449045 -9 11 C-7.59155282 7.78475695 -5.89655214 5.67816132 -3.375 3.25 C-2.74335937 2.63640625 -2.11171875 2.0228125 -1.4609375 1.390625 C-0.73777344 0.70226562 -0.73777344 0.70226562 0 0 Z " fill="#414141" transform="translate(79,91)"/>
<path d="M0 0 C1.32 0 2.64 0 4 0 C4 0.99 4 1.98 4 3 C3.01 3 2.02 3 1 3 C1 7.95 1 12.9 1 18 C0.67 18 0.34 18 0 18 C0 12.06 0 6.12 0 0 Z " fill="#C1C0CC" transform="translate(94,167)"/>
<path d="M0 0 C1.98 0 3.96 0 6 0 C6 0.66 6 1.32 6 2 C6.66 2.33 7.32 2.66 8 3 C5.23749964 4.38125018 3.05268901 4.19079306 0 4 C-0.66 3.34 -1.32 2.68 -2 2 C-1.34 2 -0.68 2 0 2 C0 1.34 0 0.68 0 0 Z " fill="#33A7D3" transform="translate(97,131)"/>
<path d="M0 0 C0.79921875 0.01804687 1.5984375 0.03609375 2.421875 0.0546875 C3.02515625 0.07789062 3.6284375 0.10109375 4.25 0.125 C2.93 0.455 1.61 0.785 0.25 1.125 C0.58 2.445 0.91 3.765 1.25 5.125 C0.71375 4.815625 0.1775 4.50625 -0.375 4.1875 C-3.1484957 2.94672561 -5.75042837 2.5340325 -8.75 2.125 C-5.68753253 0.34090198 -3.52920727 -0.10380021 0 0 Z " fill="#14242F" transform="translate(106.75,114.875)"/>
<path d="M0 0 C1.32 0 2.64 0 4 0 C4 1.65 4 3.3 4 5 C2.35 4.67 0.7 4.34 -1 4 C-0.67 2.68 -0.34 1.36 0 0 Z " fill="#9FD3E6" transform="translate(98,123)"/>
<path d="M0 0 C0.66 0.33 1.32 0.66 2 1 C-0.97 3.97 -3.94 6.94 -7 10 C-7 7 -7 7 -4.625 4.4375 C-3.75875 3.633125 -2.8925 2.82875 -2 2 C-1.34 1.34 -0.68 0.68 0 0 Z " fill="#77C0DA" transform="translate(94,91)"/>
<path d="M0 0 C0.99 0.33 1.98 0.66 3 1 C2.01 2.98 1.02 4.96 0 7 C-0.66 7 -1.32 7 -2 7 C-1.125 2.25 -1.125 2.25 0 0 Z " fill="#111F23" transform="translate(83,100)"/>
<path d="M0 0 C2.02045442 0.60183749 4.02111039 1.27306096 6 2 C6.33 2.66 6.66 3.32 7 4 C4.69 3.67 2.38 3.34 0 3 C0 2.01 0 1.02 0 0 Z " fill="#7BC4DD" transform="translate(102,90)"/>
</svg>
